<?xml version="1.0" encoding="UTF-8"?>
<svg version="1.1" xmlns="http://www.w3.org/2000/svg" width="400" height="400">
<path d="M0 0 C1.23391228 -0.01058945 1.23391228 -0.01058945 2.49275208 -0.02139282 C36.44592663 -0.24667095 36.44592663 -0.24667095 51.171875 3.203125 C52.06503418 3.40180176 52.95819336 3.60047852 53.87841797 3.80517578 C80.05158526 9.7223948 105.43787555 20.28134731 127.171875 36.203125 C128.73228516 37.33814453 128.73228516 37.33814453 130.32421875 38.49609375 C137.93010108 44.13609215 144.93699192 50.32606186 151.77490234 56.86914062 C152.96618746 58.00671173 154.17117264 59.12990724 155.37890625 60.25 C187.35060068 90.72403868 210.20998236 140.36129218 211.33300781 184.46582031 C211.35254956 185.98756911 211.36630412 187.50940058 211.375 189.03125 C211.38205963 189.85385818 211.38911926 190.67646637 211.39639282 191.52400208 C211.62167095 225.47717663 211.62167095 225.47717663 208.171875 240.203125 C207.87385986 241.54286377 207.87385986 241.54286377 207.56982422 242.90966797 C201.6526052 269.08283526 191.09365269 294.46912555 175.171875 316.203125 C174.41519531 317.24339844 173.65851563 318.28367187 172.87890625 319.35546875 C167.23890785 326.96135108 161.04893814 333.96824192 154.50585938 340.80615234 C153.36828827 341.99743746 152.24509276 343.20242264 151.125 344.41015625 C120.65096132 376.38185068 71.01370782 399.24123236 26.90917969 400.36425781 C25.38743089 400.38379956 23.86559942 400.39755412 22.34375 400.40625 C21.10983772 400.41683945 21.10983772 400.41683945 19.85099792 400.42764282 C-14.10217663 400.65292095 -14.10217663 400.65292095 -28.828125 397.203125 C-30.16786377 396.90510986 -30.16786377 396.90510986 -31.53466797 396.60107422 C-57.70783526 390.6838552 -83.09412555 380.12490269 -104.828125 364.203125 C-105.86839844 363.44644531 -106.90867187 362.68976563 -107.98046875 361.91015625 C-115.58635108 356.27015785 -122.59324192 350.08018814 -129.43115234 343.53710938 C-130.62243746 342.39953827 -131.82742264 341.27634276 -133.03515625 340.15625 C-165.00685068 309.68221132 -187.86623236 260.04495782 -188.98925781 215.94042969 C-189.00879956 214.41868089 -189.02255412 212.89684942 -189.03125 211.375 C-189.03830963 210.55239182 -189.04536926 209.72978363 -189.05264282 208.88224792 C-189.27792095 174.92907337 -189.27792095 174.92907337 -185.828125 160.203125 C-185.62944824 159.30996582 -185.43077148 158.41680664 -185.22607422 157.49658203 C-179.3088552 131.32341474 -168.74990269 105.93712445 -152.828125 84.203125 C-152.07144531 83.16285156 -151.31476563 82.12257813 -150.53515625 81.05078125 C-144.89515785 73.44489892 -138.70518814 66.43800808 -132.16210938 59.60009766 C-131.02453827 58.40881254 -129.90134276 57.20382736 -128.78125 55.99609375 C-97.01652998 22.67028706 -45.85508406 0.26201706 0 0 Z " fill="#FEFEFE" transform="translate(188.828125,-0.203125)"/>
<path d="M0 0 C114.84 0 229.68 0 348 0 C348 31.68 348 63.36 348 96 C233.16 96 118.32 96 0 96 C0 64.32 0 32.64 0 0 Z " fill="#FEFEFE" transform="translate(26,152)"/>
<path d="M0 0 C54.45 0 108.9 0 165 0 C165 25.74 165 51.48 165 78 C110.55 78 56.1 78 0 78 C0 52.26 0 26.52 0 0 Z " fill="#010101" transform="translate(35,161)"/>
<path d="M0 0 C114.84 0 229.68 0 348 0 C348 31.68 348 63.36 348 96 C233.16 96 118.32 96 0 96 C0 64.32 0 32.64 0 0 Z M2 3 C2 32.7 2 62.4 2 93 C115.19 93 228.38 93 345 93 C345 63.3 345 33.6 345 3 C231.81 3 118.62 3 2 3 Z " fill="#020202" transform="translate(26,152)"/>
<path d="M0 0 C2.31 0 4.62 0 7 0 C7.06058594 1.21558594 7.12117188 2.43117187 7.18359375 3.68359375 C7.26798332 5.26824228 7.3526321 6.85287702 7.4375 8.4375 C7.47681641 9.23994141 7.51613281 10.04238281 7.55664062 10.86914062 C7.4054296 14.75239561 7.4054296 14.75239561 9 18 C10.65 18 12.3 18 14 18 C14.495 9.09 14.495 9.09 15 0 C17.64 0 20.28 0 23 0 C23.08115993 3.06303578 23.14057409 6.12390815 23.1875 9.1875 C23.21263672 10.05181641 23.23777344 10.91613281 23.26367188 11.80664062 C23.31980871 16.69054544 23.26570457 20.07963204 20 24 C15.54757426 26.96828383 11.22223487 26.63369224 6 26 C2.38308725 23.90219061 1.31708591 22.95125774 0 19 C-0.0806622 17.51876453 -0.10761193 16.03417796 -0.09765625 14.55078125 C-0.09443359 13.70322266 -0.09121094 12.85566406 -0.08789062 11.98242188 C-0.07951172 11.10134766 -0.07113281 10.22027344 -0.0625 9.3125 C-0.05798828 8.41982422 -0.05347656 7.52714844 -0.04882812 6.60742188 C-0.03704983 4.40488013 -0.02060164 2.20247401 0 0 Z " fill="#090909" transform="translate(276,186)"/>
<path d="M0 0 C7.59 0 15.18 0 23 0 C23 1.65 23 3.3 23 5 C20.03 5 17.06 5 14 5 C14 11.93 14 18.86 14 26 C12.02 26 10.04 26 8 26 C8 19.4 8 12.8 8 6 C5.36 6 2.72 6 0 6 C0 4.02 0 2.04 0 0 Z " fill="#F0F0F0" transform="translate(106,186)"/>
</svg>
